<mxfile host="app.diagrams.net" modified="2024-05-08T22:08:33.204Z" agent="Mozilla/5.0 (X11; Linux x86_64) AppleWebKit/537.36 (KHTML, like Gecko) Chrome/124.0.0.0 Safari/537.36" etag="vSJCqFiz83pcnBfDHZdJ" version="24.3.1" type="device">
  <diagram name="PÃ¡gina-1" id="w0RAQumwZT_6oqX5rM94">
    <mxGraphModel dx="1434" dy="1957" grid="1" gridSize="10" guides="1" tooltips="1" connect="1" arrows="1" fold="1" page="1" pageScale="1" pageWidth="827" pageHeight="1169" math="0" shadow="0">
      <root>
        <mxCell id="0" />
        <mxCell id="1" parent="0" />
        <mxCell id="sO7cZ2m3Egwk4QlAmwa1-44" value="" style="sketch=0;points=[[0,0,0],[0.25,0,0],[0.5,0,0],[0.75,0,0],[1,0,0],[0,1,0],[0.25,1,0],[0.5,1,0],[0.75,1,0],[1,1,0],[0,0.25,0],[0,0.5,0],[0,0.75,0],[1,0.25,0],[1,0.5,0],[1,0.75,0]];outlineConnect=0;fontColor=#232F3E;fillColor=#7AA116;strokeColor=#ffffff;dashed=0;verticalLabelPosition=bottom;verticalAlign=top;align=center;html=1;fontSize=12;fontStyle=0;aspect=fixed;shape=mxgraph.aws4.resourceIcon;resIcon=mxgraph.aws4.s3;" vertex="1" parent="1">
          <mxGeometry x="599" y="422" width="78" height="78" as="geometry" />
        </mxCell>
        <mxCell id="sO7cZ2m3Egwk4QlAmwa1-8" value="" style="rounded=0;whiteSpace=wrap;html=1;dashed=1;" vertex="1" parent="1">
          <mxGeometry x="210" y="-140" width="598" height="510" as="geometry" />
        </mxCell>
        <mxCell id="sO7cZ2m3Egwk4QlAmwa1-38" style="edgeStyle=orthogonalEdgeStyle;rounded=0;orthogonalLoop=1;jettySize=auto;html=1;" edge="1" parent="1" source="sO7cZ2m3Egwk4QlAmwa1-1" target="sO7cZ2m3Egwk4QlAmwa1-24">
          <mxGeometry relative="1" as="geometry" />
        </mxCell>
        <mxCell id="sO7cZ2m3Egwk4QlAmwa1-1" value="" style="html=1;verticalLabelPosition=bottom;align=center;labelBackgroundColor=#ffffff;verticalAlign=top;strokeWidth=2;strokeColor=#0080F0;shadow=0;dashed=0;shape=mxgraph.ios7.icons.data;" vertex="1" parent="1">
          <mxGeometry x="116" y="141.03" width="54" height="70" as="geometry" />
        </mxCell>
        <mxCell id="sO7cZ2m3Egwk4QlAmwa1-2" value="Mongo" style="text;html=1;align=center;verticalAlign=middle;resizable=0;points=[];autosize=1;strokeColor=none;fillColor=none;" vertex="1" parent="1">
          <mxGeometry x="110" y="214" width="60" height="30" as="geometry" />
        </mxCell>
        <mxCell id="sO7cZ2m3Egwk4QlAmwa1-52" style="edgeStyle=orthogonalEdgeStyle;rounded=0;orthogonalLoop=1;jettySize=auto;html=1;" edge="1" parent="1" source="sO7cZ2m3Egwk4QlAmwa1-3" target="sO7cZ2m3Egwk4QlAmwa1-41">
          <mxGeometry relative="1" as="geometry">
            <Array as="points">
              <mxPoint x="500" y="459" />
            </Array>
          </mxGeometry>
        </mxCell>
        <mxCell id="sO7cZ2m3Egwk4QlAmwa1-3" value="" style="sketch=0;points=[[0,0,0],[0.25,0,0],[0.5,0,0],[0.75,0,0],[1,0,0],[0,1,0],[0.25,1,0],[0.5,1,0],[0.75,1,0],[1,1,0],[0,0.25,0],[0,0.5,0],[0,0.75,0],[1,0.25,0],[1,0.5,0],[1,0.75,0]];outlineConnect=0;fontColor=#232F3E;fillColor=#8C4FFF;strokeColor=#ffffff;dashed=0;verticalLabelPosition=bottom;verticalAlign=top;align=center;html=1;fontSize=12;fontStyle=0;aspect=fixed;shape=mxgraph.aws4.resourceIcon;resIcon=mxgraph.aws4.managed_streaming_for_kafka;" vertex="1" parent="1">
          <mxGeometry x="356.86" y="420" width="78" height="78" as="geometry" />
        </mxCell>
        <mxCell id="sO7cZ2m3Egwk4QlAmwa1-4" value="Kafka" style="text;html=1;align=center;verticalAlign=middle;resizable=0;points=[];autosize=1;strokeColor=none;fillColor=none;" vertex="1" parent="1">
          <mxGeometry x="372.71" y="498" width="50" height="30" as="geometry" />
        </mxCell>
        <mxCell id="sO7cZ2m3Egwk4QlAmwa1-9" value="&lt;div&gt;Schema Registry&lt;/div&gt;" style="text;html=1;align=center;verticalAlign=middle;resizable=0;points=[];autosize=1;strokeColor=none;fillColor=none;" vertex="1" parent="1">
          <mxGeometry x="458.15" y="0.05000000000001137" width="110" height="30" as="geometry" />
        </mxCell>
        <mxCell id="sO7cZ2m3Egwk4QlAmwa1-7" value="" style="shape=image;html=1;verticalAlign=top;verticalLabelPosition=bottom;labelBackgroundColor=#ffffff;imageAspect=0;aspect=fixed;image=https://cdn4.iconfinder.com/data/icons/winter-255/64/Winter_Iceberg-128.png" vertex="1" parent="1">
          <mxGeometry x="648.15" y="400" width="50" height="50" as="geometry" />
        </mxCell>
        <mxCell id="sO7cZ2m3Egwk4QlAmwa1-10" value="" style="sketch=0;points=[[0,0,0],[0.25,0,0],[0.5,0,0],[0.75,0,0],[1,0,0],[0,1,0],[0.25,1,0],[0.5,1,0],[0.75,1,0],[1,1,0],[0,0.25,0],[0,0.5,0],[0,0.75,0],[1,0.25,0],[1,0.5,0],[1,0.75,0]];outlineConnect=0;fontColor=#232F3E;fillColor=#ED7100;strokeColor=#ffffff;dashed=0;verticalLabelPosition=bottom;verticalAlign=top;align=center;html=1;fontSize=12;fontStyle=0;aspect=fixed;shape=mxgraph.aws4.resourceIcon;resIcon=mxgraph.aws4.ecs;" vertex="1" parent="1">
          <mxGeometry x="243" y="-130" width="40" height="40" as="geometry" />
        </mxCell>
        <mxCell id="sO7cZ2m3Egwk4QlAmwa1-11" value="ECS Cluster&lt;div&gt;&lt;br&gt;&lt;/div&gt;" style="text;html=1;align=center;verticalAlign=middle;resizable=0;points=[];autosize=1;strokeColor=none;fillColor=none;" vertex="1" parent="1">
          <mxGeometry x="220" y="-89.99999999999997" width="90" height="40" as="geometry" />
        </mxCell>
        <mxCell id="sO7cZ2m3Egwk4QlAmwa1-19" style="edgeStyle=orthogonalEdgeStyle;rounded=0;orthogonalLoop=1;jettySize=auto;html=1;" edge="1" parent="1" source="sO7cZ2m3Egwk4QlAmwa1-21">
          <mxGeometry relative="1" as="geometry">
            <mxPoint x="312" y="-188" as="targetPoint" />
          </mxGeometry>
        </mxCell>
        <mxCell id="sO7cZ2m3Egwk4QlAmwa1-20" value="CI/CD" style="edgeLabel;html=1;align=center;verticalAlign=middle;resizable=0;points=[];" vertex="1" connectable="0" parent="sO7cZ2m3Egwk4QlAmwa1-19">
          <mxGeometry x="0.0079" y="3" relative="1" as="geometry">
            <mxPoint as="offset" />
          </mxGeometry>
        </mxCell>
        <mxCell id="sO7cZ2m3Egwk4QlAmwa1-21" value="" style="dashed=0;outlineConnect=0;html=1;align=center;labelPosition=center;verticalLabelPosition=bottom;verticalAlign=top;shape=mxgraph.weblogos.github" vertex="1" parent="1">
          <mxGeometry x="276" y="-360" width="75" height="75" as="geometry" />
        </mxCell>
        <mxCell id="sO7cZ2m3Egwk4QlAmwa1-22" value="ksqlDB" style="text;html=1;align=center;verticalAlign=middle;resizable=0;points=[];autosize=1;strokeColor=none;fillColor=none;" vertex="1" parent="1">
          <mxGeometry x="545.86" y="216" width="60" height="30" as="geometry" />
        </mxCell>
        <mxCell id="sO7cZ2m3Egwk4QlAmwa1-30" style="rounded=0;orthogonalLoop=1;jettySize=auto;html=1;edgeStyle=orthogonalEdgeStyle;curved=1;" edge="1" parent="1" source="sO7cZ2m3Egwk4QlAmwa1-23" target="sO7cZ2m3Egwk4QlAmwa1-24">
          <mxGeometry relative="1" as="geometry" />
        </mxCell>
        <mxCell id="sO7cZ2m3Egwk4QlAmwa1-39" style="edgeStyle=orthogonalEdgeStyle;rounded=0;orthogonalLoop=1;jettySize=auto;html=1;curved=1;" edge="1" parent="1" source="sO7cZ2m3Egwk4QlAmwa1-23" target="sO7cZ2m3Egwk4QlAmwa1-27">
          <mxGeometry relative="1" as="geometry" />
        </mxCell>
        <mxCell id="sO7cZ2m3Egwk4QlAmwa1-40" style="edgeStyle=orthogonalEdgeStyle;rounded=0;orthogonalLoop=1;jettySize=auto;html=1;curved=1;" edge="1" parent="1" source="sO7cZ2m3Egwk4QlAmwa1-23" target="sO7cZ2m3Egwk4QlAmwa1-25">
          <mxGeometry relative="1" as="geometry" />
        </mxCell>
        <mxCell id="sO7cZ2m3Egwk4QlAmwa1-23" value="" style="sketch=0;outlineConnect=0;fontColor=#232F3E;gradientColor=none;fillColor=#ED7100;strokeColor=none;dashed=0;verticalLabelPosition=bottom;verticalAlign=top;align=center;html=1;fontSize=12;fontStyle=0;aspect=fixed;pointerEvents=1;shape=mxgraph.aws4.ecs_task;" vertex="1" parent="1">
          <mxGeometry x="552.71" y="146" width="46.29" height="60.05" as="geometry" />
        </mxCell>
        <mxCell id="sO7cZ2m3Egwk4QlAmwa1-35" style="edgeStyle=orthogonalEdgeStyle;rounded=0;orthogonalLoop=1;jettySize=auto;html=1;" edge="1" parent="1" source="sO7cZ2m3Egwk4QlAmwa1-24" target="sO7cZ2m3Egwk4QlAmwa1-1">
          <mxGeometry relative="1" as="geometry" />
        </mxCell>
        <mxCell id="sO7cZ2m3Egwk4QlAmwa1-37" style="edgeStyle=orthogonalEdgeStyle;rounded=0;orthogonalLoop=1;jettySize=auto;html=1;" edge="1" parent="1" source="sO7cZ2m3Egwk4QlAmwa1-24" target="sO7cZ2m3Egwk4QlAmwa1-3">
          <mxGeometry relative="1" as="geometry" />
        </mxCell>
        <mxCell id="sO7cZ2m3Egwk4QlAmwa1-24" value="" style="sketch=0;outlineConnect=0;fontColor=#232F3E;gradientColor=none;fillColor=#ED7100;strokeColor=none;dashed=0;verticalLabelPosition=bottom;verticalAlign=top;align=center;html=1;fontSize=12;fontStyle=0;aspect=fixed;pointerEvents=1;shape=mxgraph.aws4.ecs_task;" vertex="1" parent="1">
          <mxGeometry x="372.71000000000004" y="146" width="46.29" height="60.05" as="geometry" />
        </mxCell>
        <mxCell id="sO7cZ2m3Egwk4QlAmwa1-25" value="" style="sketch=0;outlineConnect=0;fontColor=#232F3E;gradientColor=none;fillColor=#ED7100;strokeColor=none;dashed=0;verticalLabelPosition=bottom;verticalAlign=top;align=center;html=1;fontSize=12;fontStyle=0;aspect=fixed;pointerEvents=1;shape=mxgraph.aws4.ecs_task;" vertex="1" parent="1">
          <mxGeometry x="490.01" y="-60.00000000000002" width="46.29" height="60.05" as="geometry" />
        </mxCell>
        <mxCell id="sO7cZ2m3Egwk4QlAmwa1-26" value="&lt;div&gt;Schema Registry UI&lt;/div&gt;" style="text;html=1;align=center;verticalAlign=middle;resizable=0;points=[];autosize=1;strokeColor=none;fillColor=none;" vertex="1" parent="1">
          <mxGeometry x="568.15" y="0.05000000000001137" width="130" height="30" as="geometry" />
        </mxCell>
        <mxCell id="sO7cZ2m3Egwk4QlAmwa1-27" value="" style="sketch=0;outlineConnect=0;fontColor=#232F3E;gradientColor=none;fillColor=#ED7100;strokeColor=none;dashed=0;verticalLabelPosition=bottom;verticalAlign=top;align=center;html=1;fontSize=12;fontStyle=0;aspect=fixed;pointerEvents=1;shape=mxgraph.aws4.ecs_task;" vertex="1" parent="1">
          <mxGeometry x="620.01" y="-60" width="46.29" height="60.05" as="geometry" />
        </mxCell>
        <mxCell id="sO7cZ2m3Egwk4QlAmwa1-43" style="edgeStyle=orthogonalEdgeStyle;rounded=0;orthogonalLoop=1;jettySize=auto;html=1;" edge="1" parent="1" source="sO7cZ2m3Egwk4QlAmwa1-41" target="sO7cZ2m3Egwk4QlAmwa1-3">
          <mxGeometry relative="1" as="geometry">
            <Array as="points">
              <mxPoint x="500" y="459" />
            </Array>
          </mxGeometry>
        </mxCell>
        <mxCell id="sO7cZ2m3Egwk4QlAmwa1-13" value="&lt;div&gt;Kafka Connect (Debeezium source)&lt;/div&gt;" style="text;html=1;align=center;verticalAlign=middle;resizable=0;points=[];autosize=1;strokeColor=none;fillColor=none;" vertex="1" parent="1">
          <mxGeometry x="290.85999999999996" y="214" width="210" height="30" as="geometry" />
        </mxCell>
        <mxCell id="sO7cZ2m3Egwk4QlAmwa1-45" style="edgeStyle=orthogonalEdgeStyle;rounded=0;orthogonalLoop=1;jettySize=auto;html=1;" edge="1" parent="1" source="sO7cZ2m3Egwk4QlAmwa1-41" target="sO7cZ2m3Egwk4QlAmwa1-44">
          <mxGeometry relative="1" as="geometry">
            <Array as="points">
              <mxPoint x="520" y="460" />
            </Array>
          </mxGeometry>
        </mxCell>
        <mxCell id="sO7cZ2m3Egwk4QlAmwa1-41" value="" style="sketch=0;outlineConnect=0;fontColor=#232F3E;gradientColor=none;fillColor=#ED7100;strokeColor=none;dashed=0;verticalLabelPosition=bottom;verticalAlign=top;align=center;html=1;fontSize=12;fontStyle=0;aspect=fixed;pointerEvents=1;shape=mxgraph.aws4.ecs_task;" vertex="1" parent="1">
          <mxGeometry x="487.71000000000004" y="260" width="46.29" height="60.05" as="geometry" />
        </mxCell>
        <mxCell id="sO7cZ2m3Egwk4QlAmwa1-42" value="&lt;div&gt;Kafka Connect (Iceberg sink)&lt;/div&gt;" style="text;html=1;align=center;verticalAlign=middle;resizable=0;points=[];autosize=1;strokeColor=none;fillColor=none;" vertex="1" parent="1">
          <mxGeometry x="418.99999999999994" y="325.05" width="180" height="30" as="geometry" />
        </mxCell>
        <mxCell id="sO7cZ2m3Egwk4QlAmwa1-47" value="S3" style="text;html=1;align=center;verticalAlign=middle;resizable=0;points=[];autosize=1;strokeColor=none;fillColor=none;" vertex="1" parent="1">
          <mxGeometry x="618" y="500" width="40" height="30" as="geometry" />
        </mxCell>
      </root>
    </mxGraphModel>
  </diagram>
</mxfile>
